<svg xmlns="http://www.w3.org/2000/svg" width="1474" height="521" viewBox="0 0 1474 521" fill="none"><path fill-rule="evenodd" clip-rule="evenodd" d="M353.664 520.564C362.721 498.363 360.967 475.761 336.978 448.833H97.295C75.1898 470.368 57.1623 488.948 79.3882 520.564H353.664Z" fill="#004C3F"></path><path fill-rule="evenodd" clip-rule="evenodd" d="M427.965 220.202C427.965 297.564 389.198 365.608 330.565 404.884C331.131 403.343 331.75 401.79 332.423 400.225C355.274 347.119 363.262 319.966 366.238 285.25C374.716 186.4 322.1 112.955 227.513 91.6099L227.507 91.6082C222.167 90.4032 219.6 89.8238 218.201 88.222C216.906 86.7388 216.611 84.3799 216.043 79.8379V79.837C213.305 57.9324 203.762 39.0677 188.561 25.5169L187.57 24.6314C183.656 21.13 181.173 18.9092 178.976 18.9659C175.187 19.0415 172.245 25.8225 164.248 44.2566L163.132 46.8271C143.455 92.1416 110.409 168.303 82.8974 231.75C69.092 263.587 58.2308 290.779 58.759 292.172C59.9271 295.255 107.744 331.855 110.604 331.855C111.721 331.855 113.293 330.665 114.096 329.212C116.312 325.202 125.802 320.781 132.243 320.781C142.009 320.755 157.168 298.555 153.494 289.648C144.25 267.241 170.343 248.441 188.855 264.17C195.72 270.003 223.43 272.287 225.039 267.152C227.464 259.417 234.973 255.175 246.549 255.002C261.649 254.776 273.202 241.431 269.701 228.261C262.651 201.748 301.161 188.732 310.826 214.361C316.022 228.142 304.128 244.926 289.076 245.054C281.159 245.125 267.518 264.105 267.04 275.716C266.196 296.248 242.383 306.305 229.414 291.606C221.281 282.387 197.876 281.666 192.743 290.478C188.67 297.468 181.154 302.29 174.33 302.29C165.882 302.29 152.045 326.046 152.045 340.55C152.045 354.84 143.862 365.127 132.459 365.127C119.44 365.151 110.221 384.144 109.22 412.254C44.0335 374.517 0 302.651 0 220.202C0 98.588 95.8034 0 213.983 0C332.162 0 427.965 98.588 427.965 220.202Z" fill="#004C3F"></path><path fill-rule="evenodd" clip-rule="evenodd" d="M1418.31 129.441C1411.04 131.28 1404.36 135.257 1398.19 141.426C1386.53 153.086 1382.48 167.809 1386.55 183.734C1388.54 191.509 1391.2 196.016 1398 203.181C1409 214.765 1423.05 219.158 1438.61 215.882C1446.83 214.154 1452.47 211.072 1459.47 204.494C1474.53 190.324 1478.01 169.934 1468.55 151.263C1464.4 143.071 1451.36 132.493 1442.36 130.02C1436.18 128.32 1423.92 128.025 1418.31 129.441ZM521.409 142.649C520.412 143.056 519.238 144.329 518.801 145.479C518.282 146.844 518.079 204.765 518.213 312.386C518.409 469.388 518.487 477.272 519.848 478.633C521.183 479.969 523.975 480.063 562.047 480.063C600.115 480.063 602.911 479.969 604.246 478.634C605.59 477.289 605.699 473 606.076 406.424C606.366 355.183 606.727 335.393 607.384 334.736C609.427 332.693 612.002 334.33 616.237 340.367C621.272 347.541 645.636 383.468 662.913 409.193C682.597 438.505 703.6 469.286 707.027 473.846C712.336 480.911 708.526 480.464 763.391 480.464C795.308 480.464 812.444 480.18 813.463 479.635C815.524 478.532 815.421 475.67 813.21 472.572C812.22 471.184 807.814 464.917 803.419 458.644C799.025 452.372 791.667 442.017 787.069 435.633C782.471 429.248 776.666 421.142 774.169 417.62C768.241 409.258 747.696 380.695 734.149 361.982C695.595 308.724 691.804 303.301 691.277 300.662C691.022 299.384 691.167 297.438 691.598 296.337C692.03 295.236 722.787 256.801 742.69 231.405C768.779 198.116 809.284 148.482 809.602 146.013C810.145 141.807 810.324 141.831 761.584 141.831C723.041 141.831 716.13 142.007 714.145 143.031C711.612 144.342 706.787 150.144 684.519 178.656C676.439 189.003 666.023 202.332 661.374 208.276C656.725 214.221 648.954 224.162 644.108 230.368C623.068 257.306 615.196 267.23 613.53 268.918C611.592 270.881 608.154 271.311 607.124 269.719C606.768 269.168 606.296 240.901 606.076 206.904C605.7 148.945 605.586 145 604.246 143.66C602.918 142.331 600.029 142.22 563.019 142.071C540.1 141.978 522.453 142.223 521.409 142.649ZM941.497 233.676C910.598 236.287 898.246 240.061 874.426 254.169C856.221 264.957 840.417 282.254 830.423 302.341C824.79 313.66 822.577 319.975 819.823 332.587C817.596 342.781 817.413 344.823 817.413 359.473C817.413 373.885 817.625 376.344 819.739 386.468C825.042 411.875 835.619 431.644 853.35 449.285C867.475 463.345 881.173 471.647 900.708 477.998C919.279 484.035 923.172 484.593 947.094 484.645C968.29 484.691 968.324 484.688 979.518 482.083C991.624 479.267 1006.05 474.064 1014.28 469.549C1031.85 459.914 1049.18 440.963 1058.99 420.656C1063.15 412.056 1063.76 407.27 1061.21 403.378C1059.22 400.347 1057.37 399.496 1051.21 398.77C1048.33 398.43 1040.38 397.384 1033.55 396.446C994.784 391.12 997.817 391.413 995.236 392.746C993.864 393.458 991.768 395.887 990.26 398.513C986.325 405.405 978.427 413.317 972.541 416.282C961.1 422.048 944.07 424.038 932.688 420.942C925.26 418.92 913.725 413.143 909.252 409.205C901.406 402.295 892.759 387.004 893.867 381.981C894.881 377.354 889.863 377.626 982.414 377.192C1063.38 376.813 1068 376.715 1069.35 375.352C1070.63 374.059 1070.76 372.419 1070.58 359.341C1069.9 310.163 1050.83 272.813 1015.79 252.018C1006.97 246.783 993.285 241.059 983.011 238.309C971.859 235.326 950.365 232.927 941.497 233.676ZM1086.14 239.257C1084.18 239.765 1083.11 242.881 1083.95 245.647C1084.32 246.888 1086.67 253.105 1089.17 259.463C1091.66 265.82 1095.98 277.168 1098.77 284.68C1101.56 292.192 1104.23 299.239 1104.71 300.34C1105.18 301.441 1109.4 312.428 1114.09 324.756C1118.76 337.085 1126.38 357.079 1131 369.187C1147.09 411.337 1153.77 428.888 1157.35 438.434C1159.33 443.718 1161.79 450.203 1162.82 452.845C1163.85 455.486 1166.03 461.251 1167.65 465.653C1171.22 475.299 1172.94 478.287 1175.66 479.525C1178.26 480.707 1258.13 480.868 1261.21 479.699C1264.73 478.358 1262.92 482.716 1294.26 400.008C1297.6 391.202 1303.04 376.972 1306.36 368.386C1309.68 359.8 1314.28 347.733 1316.59 341.568C1326.03 316.378 1341.14 276.56 1346.86 261.757C1350.22 253.084 1352.96 244.908 1352.96 243.589C1352.96 238.632 1353.53 238.697 1310.31 238.697C1267.71 238.697 1267.89 238.679 1265.76 243.24C1264.01 246.995 1230.37 341.161 1226.39 353.448C1225.56 356.019 1224.88 359.422 1224.88 361.011C1224.88 364.396 1222.67 382.921 1221.55 389C1220.63 393.886 1218.91 396.163 1217.19 394.737C1215.66 393.465 1214.71 389.397 1213.75 379.995C1213.31 375.591 1212.59 368.566 1212.17 364.384C1211.28 355.563 1207.8 345.095 1179.23 265.199C1175.24 254.018 1171.47 243.912 1170.87 242.74C1168.79 238.728 1168.36 238.691 1126.57 238.791C1105.13 238.842 1086.94 239.052 1086.14 239.257ZM1392.37 239.515C1391.37 239.922 1390.21 241.198 1389.76 242.351C1389.24 243.716 1389.04 285.026 1389.18 360.826C1389.37 471.324 1389.46 477.276 1390.81 478.633C1392.15 479.964 1394.8 480.063 1429.41 480.063C1464.03 480.063 1466.67 479.964 1468 478.633C1469.37 477.274 1469.43 471.431 1469.43 359.58C1469.43 247.748 1469.37 241.887 1468.01 240.527C1466.68 239.202 1463.94 239.086 1430.38 238.936C1409.63 238.843 1393.42 239.09 1392.37 239.515ZM960.154 293.088C968.826 295.316 975.403 299.027 981.579 305.178C989.34 312.896 994.605 324.315 992.118 328.039C990.388 330.625 987.986 330.761 944.129 330.761C895.596 330.761 896.661 330.871 896.661 325.862C896.661 320.388 903.868 309.079 911.237 302.976C916.783 298.387 926.87 293.483 933.89 291.965C940.943 290.44 951.635 290.897 960.154 293.088Z" fill="#004C3F"></path></svg>